<svg width="5090" height="514" viewBox="0 0 5090 514" fill="none" xmlns="http://www.w3.org/2000/svg">
    <mask id="mask0_531_281" style="mask-type:luminance" maskUnits="userSpaceOnUse" x="0" y="0" width="5085"
          height="510">
        <path d="M5084.78 0H0.386719V510H5084.78V0Z" fill="white"/>
    </mask>
    <g mask="url(#mask0_531_281)">
        <path d="M2739.55 435.655C2718.43 425.177 2699.33 411.045 2683.13 393.912L2696.12 371.411C2698.67 367.576 2702.15 364.45 2706.23 362.323C2710.45 360.1 2715.16 358.979 2719.93 359.064C2726.69 359.002 2733.31 361.053 2738.85 364.933C2750.1 372.672 2762.12 379.229 2774.72 384.499C2785.39 389.393 2796.91 392.163 2808.63 392.653C2826.81 393.634 2844.77 388.339 2859.5 377.657C2865.84 372.621 2870.89 366.151 2874.23 358.78C2877.58 351.41 2879.13 343.35 2878.74 335.265C2878.64 328.736 2877.1 322.31 2874.22 316.447C2871.35 310.584 2867.21 305.43 2862.11 301.351C2846.16 288.749 2828.19 278.938 2808.96 272.333C2778.69 262.777 2750.81 246.883 2727.16 225.708C2718.71 217.566 2712.01 207.785 2707.47 196.965C2702.93 186.144 2700.64 174.511 2700.75 162.776C2700.45 143.712 2705.53 124.949 2715.42 108.647C2725.29 92.6418 2739.55 79.8106 2756.5 71.6826C2775.33 62.6933 2796.01 58.2463 2816.86 58.6989C2835.95 58.8563 2854.85 62.5041 2872.63 69.4624C2890.22 75.8079 2906.08 86.1968 2918.93 99.7923L2908.17 118.71C2905.29 124.182 2901.02 128.795 2895.78 132.083C2891.05 135.262 2885.49 136.965 2879.8 136.978C2875.14 137.024 2870.54 135.903 2866.42 133.719C2858.67 128.478 2850.06 124.617 2840.99 122.306C2833.06 119.865 2824.82 118.553 2816.53 118.411C2802.17 117.702 2788.01 121.961 2776.42 130.473C2771.38 134.248 2767.32 139.185 2764.6 144.863C2761.87 150.541 2760.56 156.793 2760.76 163.088C2760.93 168.682 2762.41 174.159 2765.07 179.084C2767.73 184.009 2771.5 188.245 2776.08 191.457C2790.97 202.099 2807.49 210.251 2824.99 215.594C2857.15 224.062 2886.57 240.685 2910.42 263.854C2919.62 273.425 2926.83 284.719 2931.64 297.085C2936.45 309.452 2938.77 322.647 2938.47 335.914C2938.94 357.225 2933.22 378.214 2921.99 396.333C2910.76 414.451 2894.51 428.919 2875.21 437.979C2853.7 448.057 2830.16 453.076 2806.4 452.651C2783.16 451.813 2760.37 446.033 2739.55 435.694"
              fill="#1D1E3F"/>
    </g>
    <path d="M3074.11 63.2568H3367.54V122.281H3251.45V447.068H3190.79V122.281H3074.11V63.2568Z" fill="#1D1E3F"/>
    <mask id="mask1_531_281" style="mask-type:luminance" maskUnits="userSpaceOnUse" x="0" y="0" width="5085"
          height="510">
        <path d="M5084.78 0H0.386719V510H5084.78V0Z" fill="white"/>
    </mask>
    <g mask="url(#mask1_531_281)">
        <path d="M3591.95 346.302C3599.54 360.411 3611.11 371.979 3625.22 379.566C3640.66 387.286 3657.68 391.305 3674.94 391.305C3692.21 391.305 3709.23 387.286 3724.67 379.566C3738.78 371.98 3750.35 360.412 3757.94 346.302C3765.95 331.15 3769.97 314.205 3769.62 297.067V63.2568H3830.27V297.067C3830.81 325.26 3824.07 353.115 3810.7 377.943C3798.11 401.024 3779.08 419.944 3755.92 432.397C3730.82 445.651 3702.78 452.379 3674.4 451.963C3646.1 452.539 3618.13 445.8 3593.2 432.397C3570.18 419.757 3551.2 400.884 3538.42 377.943C3525.04 353.124 3518.31 325.259 3518.91 297.067V63.2568H3579.55V297.067C3579.75 314.225 3584 331.095 3591.95 346.302Z"
              fill="#1D1E3F"/>
    </g>
    <mask id="mask2_531_281" style="mask-type:luminance" maskUnits="userSpaceOnUse" x="0" y="0" width="5085"
          height="510">
        <path d="M5084.78 0H0.386719V510H5084.78V0Z" fill="white"/>
    </mask>
    <g mask="url(#mask2_531_281)">
        <path d="M4200.41 373.048C4220.39 361.222 4236.92 344.357 4248.34 324.138C4259.9 303.104 4265.96 279.493 4265.96 255.494C4265.96 231.495 4259.9 207.884 4248.34 186.849C4237.03 166.468 4220.48 149.473 4200.41 137.615C4180.2 125.593 4157.07 119.387 4133.55 119.684H4045.19V391.303H4133.55C4157.05 391.173 4180.11 384.878 4200.41 373.048ZM3984.88 63.2568H4133.91C4167.98 62.9301 4201.53 71.711 4231.08 88.6919C4260.18 105.13 4284.29 129.131 4300.86 158.155C4317.94 187.557 4326.84 220.997 4326.62 255C4326.84 288.696 4318.1 321.845 4301.32 351.063C4284.53 380.281 4260.29 404.521 4231.08 421.309C4201.53 438.289 4167.98 447.07 4133.91 446.744H3984.88V63.2568Z"
              fill="#1D1E3F"/>
    </g>
    <path d="M4538.24 63.5808H4477.6V447.068H4538.24V63.5808Z" fill="#1D1E3F"/>
    <mask id="mask3_531_281" style="mask-type:luminance" maskUnits="userSpaceOnUse" x="0" y="0" width="5085"
          height="510">
        <path d="M5084.78 0H0.386719V510H5084.78V0Z" fill="white"/>
    </mask>
    <g mask="url(#mask3_531_281)">
        <path d="M4767.5 324.463C4779.33 345.096 4796.44 362.207 4817.07 374.035C4838.33 385.8 4862.23 391.971 4886.53 391.971C4910.83 391.971 4934.73 385.8 4955.99 374.035C4976.63 362.207 4993.74 345.096 5005.57 324.463C5017.54 303.269 5023.83 279.341 5023.83 255C5023.83 230.659 5017.54 206.731 5005.57 185.537C4993.74 164.904 4976.63 147.793 4955.99 135.965C4934.8 123.993 4910.87 117.701 4886.53 117.701C4862.19 117.701 4838.26 123.993 4817.07 135.965C4796.44 147.793 4779.33 164.904 4767.5 185.537C4755.32 206.645 4749.01 230.631 4749.24 255C4749.17 279.349 4755.46 303.295 4767.5 324.463ZM4715.01 155.545C4732.04 125.901 4756.69 101.356 4786.42 84.4589C4817.07 67.3518 4851.59 58.3711 4886.69 58.3711C4921.79 58.3711 4956.31 67.3518 4986.96 84.4589C5016.75 101.265 5041.43 125.831 5058.37 155.545C5075.68 185.892 5084.78 220.226 5084.78 255.162C5084.78 290.098 5075.68 324.432 5058.37 354.78C5041.25 384.353 5016.61 408.876 4986.96 425.865C4956.31 442.973 4921.79 451.953 4886.69 451.953C4851.59 451.953 4817.07 442.973 4786.42 425.865C4756.62 409.061 4731.95 384.494 4715.01 354.78C4697.62 324.539 4688.61 290.206 4688.92 255.324C4688.41 220.316 4697.43 185.827 4715.01 155.545Z"
              fill="#1D1E3F"/>
    </g>
    <path d="M0.386719 67.5023V126.903L135.716 126.578V451.314H196.363V126.526H330.718V67.1777L0.386719 67.5023Z"
          fill="#1D1E3F"/>
    <path d="M514.295 287.615H712.231V450.989H772.878V67.502H712.231V230.551H514.295V67.502H453.648V450.989H514.295V287.615Z"
          fill="#1D1E3F"/>
    <path d="M980.929 67.502H920.282V450.989H980.929V67.502Z" fill="#1D1E3F"/>
    <mask id="mask4_531_281" style="mask-type:luminance" maskUnits="userSpaceOnUse" x="0" y="0" width="5085"
          height="510">
        <path d="M5084.78 0H0.386719V510H5084.78V0Z" fill="white"/>
    </mask>
    <g mask="url(#mask4_531_281)">
        <path d="M1384.63 251.417V344.354L1208.55 86.0952C1204.56 80.1517 1199.34 75.1455 1193.23 71.4236C1187.05 68.3925 1180.21 66.9383 1173.33 67.1909H1126.05V450.989H1186.37L1186.7 243.601V155.545L1378.11 436.967C1380.89 440.886 1384.31 444.306 1388.23 447.081C1391.4 449.281 1395.13 450.525 1398.99 450.665H1444.97V67.178H1384.64V251.417H1384.63Z"
              fill="#1D1E3F"/>
    </g>
    <path d="M1654.64 67.502H1593.99V450.989H1654.64V67.502Z" fill="#1D1E3F"/>
    <mask id="mask5_531_281" style="mask-type:luminance" maskUnits="userSpaceOnUse" x="5" y="0" width="5085"
          height="510">
        <path d="M5090 0H5.60645V510H5090V0Z" fill="white"/>
    </mask>
    <g mask="url(#mask5_531_281)">
        <path d="M1754.76 263.154C1753.29 261.359 1751.46 259.905 1749.37 258.892C1747.29 257.878 1745.01 257.33 1742.7 257.285H1741.06C1743.39 257.312 1745.69 256.796 1747.79 255.777C1749.88 254.759 1751.71 253.265 1753.12 251.416L1900.51 67.5022H1836.62C1834.29 67.475 1831.99 67.9912 1829.9 69.01C1827.8 70.0288 1825.97 71.522 1824.56 73.3709L1684.33 248.482C1682.29 251.021 1681.17 254.185 1681.17 257.447C1681.17 260.709 1682.29 263.873 1684.33 266.413L1828.14 445.757C1829.65 447.585 1831.54 449.058 1833.68 450.072C1835.82 451.087 1838.16 451.617 1840.53 451.625H1905.75L1754.76 263.154Z"
              fill="#1D1E3F"/>
    </g>
    <path fill-rule="evenodd" clip-rule="evenodd"
          d="M2060.58 26.5811C2075 12.1575 2094.56 4.03775 2114.95 4H2548V437.046C2547.96 457.444 2539.84 476.995 2525.42 491.419C2511 505.842 2491.44 513.962 2471.05 514H2038V80.9544C2038.04 60.5564 2046.16 41.0047 2060.58 26.5811ZM2186.69 441.551C2183.83 445.213 2180.16 448.17 2175.98 450.195C2171.79 452.221 2167.2 453.261 2162.55 453.236H2102.23L2401.27 79.656C2404.2 76.0843 2407.88 73.2075 2412.06 71.2337C2416.23 69.2599 2420.79 68.2385 2425.41 68.2434H2485.41L2186.69 441.551Z"
          fill="#FDC608"/>
</svg>
