<svg width="500" height="500" viewBox="0 0 500 500" fill="none" xmlns="http://www.w3.org/2000/svg">
<g clip-path="url(#clip0_305_27)">
<path d="M395.833 500H0V104.167C0 76.5399 10.9825 50.0526 30.5176 30.5176C50.0526 10.9825 76.5399 0 104.167 0H500V395.833C499.967 423.45 488.97 449.934 469.442 469.462C449.914 488.99 423.45 499.967 395.833 500ZM379.15 62.9883C374.605 62.9954 370.136 64.0316 366.048 66.0197C361.96 68.0078 358.363 70.8915 355.55 74.4629L61.8083 440.837H121.175C125.747 440.823 130.279 439.788 134.399 437.805C138.52 435.823 142.156 432.947 145.02 429.382L438.599 62.9883H379.15Z" fill="#FFC608"/>
</g>
<defs>
<clipPath id="clip0_305_27">
<rect width="500" height="500" fill="white"/>
</clipPath>
</defs>
</svg>
